<svg width="36" height="36" viewBox="0 0 36 36" fill="none" xmlns="http://www.w3.org/2000/svg">
    <path d="M32.6738 2.25H23.5762C22.9926 2.25067 22.4331 2.4828 22.0205 2.89546C21.6078 3.30812 21.3757 3.86761 21.375 4.4512V14.399C20.4138 14.2597 19.4631 14.056 18.5292 13.7894C18.1397 13.6783 17.7235 13.7068 17.3527 13.87C16.982 14.0332 16.6798 14.3207 16.4985 14.683C16.4791 14.722 16.4642 14.7631 16.4543 14.8055L16.3277 15.3427C16.3177 15.385 16.3126 15.4284 16.3126 15.4718V16.7929C16.3125 17.333 16.5 17.8563 16.8429 18.2736C17.1859 18.6908 17.6632 18.9759 18.1931 19.0803C16.9774 20.504 16.3104 22.3153 16.3125 24.1875V25.875H15.5027C13.8397 23.1073 13.06 19.8985 13.2674 16.6763L13.4692 13.4483C14.1544 13.3147 14.7661 12.9325 15.1863 12.375H17.4375C17.8851 12.375 18.3143 12.1972 18.6307 11.8807C18.9472 11.5643 19.125 11.1351 19.125 10.6875C19.125 10.2399 18.9472 9.81072 18.6307 9.49426C18.3143 9.17779 17.8851 9 17.4375 9H15.1863C14.9525 8.69003 14.6574 8.43158 14.3193 8.24077C13.9812 8.04997 13.6074 7.93091 13.2212 7.89103L14.4334 5.0625H15.2387C15.4215 6.04343 16.0749 6.75 16.875 6.75C17.8213 6.75 18.5625 5.76169 18.5625 4.5C18.5625 3.23831 17.8213 2.25 16.875 2.25C16.0749 2.25 15.4215 2.95657 15.2387 3.9375H14.0625C13.9524 3.93749 13.8447 3.96979 13.7528 4.0304C13.6609 4.091 13.5888 4.17725 13.5454 4.27845L12.0041 7.875H7.3125C7.16332 7.875 7.02024 7.93426 6.91475 8.03975C6.80926 8.14524 6.75 8.28832 6.75 8.4375V12.9375C6.75 13.0867 6.80926 13.2298 6.91475 13.3352C7.02024 13.4407 7.16332 13.5 7.3125 13.5H9.90703L6.90237 22.5141C5.33653 22.6199 3.86923 23.3161 2.79686 24.462C1.72448 25.6079 1.12696 27.1181 1.125 28.6875C1.125 28.8367 1.18426 28.9798 1.28975 29.0852C1.39524 29.1907 1.53832 29.25 1.6875 29.25H3.53904C3.36388 29.8377 3.32841 30.4582 3.43545 31.062C3.54249 31.6658 3.78908 32.2363 4.15558 32.7279C4.52207 33.2196 4.99834 33.6188 5.54643 33.8939C6.09452 34.1689 6.69927 34.3122 7.3125 34.3122C7.92573 34.3122 8.53048 34.1689 9.07857 33.8939C9.62666 33.6188 10.1029 33.2196 10.4694 32.7279C10.8359 32.2363 11.0825 31.6658 11.1896 31.062C11.2966 30.4582 11.2611 29.8377 11.086 29.25H24.914C24.7389 29.8377 24.7034 30.4582 24.8104 31.062C24.9175 31.6658 25.1641 32.2363 25.5306 32.7279C25.8971 33.2196 26.3733 33.6188 26.9214 33.8939C27.4695 34.1689 28.0743 34.3122 28.6875 34.3122C29.3007 34.3122 29.9055 34.1689 30.4536 33.8939C31.0017 33.6188 31.4779 33.2196 31.8444 32.7279C32.2109 32.2363 32.4575 31.6658 32.5646 31.062C32.6716 30.4582 32.6361 29.8377 32.461 29.25H34.3125C34.4617 29.25 34.6048 29.1907 34.7102 29.0852C34.8157 28.9798 34.875 28.8367 34.875 28.6875V25.875C34.876 24.8739 34.685 23.8819 34.3125 22.9527V19.6349C34.312 19.2015 34.1396 18.7859 33.8331 18.4794C33.5266 18.1729 33.111 18.0005 32.6776 18H31.1977C31.3959 17.6582 31.5004 17.2701 31.5004 16.875C31.5004 16.4799 31.3959 16.0918 31.1977 15.75H34.3125C34.4617 15.75 34.6048 15.6907 34.7102 15.5852C34.8157 15.4798 34.875 15.3367 34.875 15.1875V4.4512C34.8743 3.86761 34.6422 3.30812 34.2295 2.89546C33.8169 2.4828 33.2574 2.25067 32.6738 2.25ZM16.875 3.375C17.1044 3.375 17.4375 3.81326 17.4375 4.5C17.4375 5.18674 17.1044 5.625 16.875 5.625C16.6456 5.625 16.3125 5.18674 16.3125 4.5C16.3125 3.81326 16.6456 3.375 16.875 3.375ZM13.5 10.125H17.4375C17.5867 10.125 17.7298 10.1843 17.8352 10.2898C17.9407 10.3952 18 10.5383 18 10.6875C18 10.8367 17.9407 10.9798 17.8352 11.0852C17.7298 11.1907 17.5867 11.25 17.4375 11.25H13.5C13.3508 11.25 13.2077 11.1907 13.1023 11.0852C12.9968 10.9798 12.9375 10.8367 12.9375 10.6875C12.9375 10.5383 12.9968 10.3952 13.1023 10.2898C13.2077 10.1843 13.3508 10.125 13.5 10.125ZM7.875 12.375V9H9V11.25H10.125V9H12.9375C13.031 9.0003 13.1243 9.00843 13.2164 9.02433C12.8237 9.09124 12.4674 9.29492 12.2105 9.59931C11.9536 9.90371 11.8126 10.2892 11.8126 10.6875C11.8126 11.0858 11.9536 11.4713 12.2105 11.7757C12.4674 12.0801 12.8237 12.2838 13.2164 12.3507C13.1243 12.3666 13.031 12.3747 12.9375 12.375H7.875ZM7.3125 33.1875C6.84544 33.1877 6.38569 33.0715 5.97479 32.8495C5.56389 32.6275 5.21478 32.3066 4.95901 31.9158C4.70324 31.525 4.54887 31.0766 4.50984 30.6112C4.47081 30.1457 4.54836 29.6779 4.73548 29.25H6.05609C5.8385 29.4927 5.69585 29.7932 5.64536 30.1152C5.59488 30.4372 5.63873 30.7669 5.77161 31.0645C5.90449 31.3621 6.12072 31.6149 6.39416 31.7923C6.66761 31.9696 6.98657 32.064 7.3125 32.064C7.63843 32.064 7.95739 31.9696 8.23084 31.7923C8.50428 31.6149 8.72051 31.3621 8.85339 31.0645C8.98627 30.7669 9.03012 30.4372 8.97964 30.1152C8.92915 29.7932 8.7865 29.4927 8.56891 29.25H9.88959C10.0767 29.6779 10.1542 30.1458 10.1151 30.6112C10.0761 31.0766 9.92172 31.5249 9.66595 31.9157C9.41017 32.3065 9.06107 32.6274 8.65018 32.8495C8.23929 33.0715 7.77955 33.1877 7.3125 33.1875ZM6.75 30.375C6.75 30.2637 6.78299 30.155 6.8448 30.0625C6.90661 29.97 6.99446 29.8979 7.09724 29.8553C7.20002 29.8127 7.31312 29.8016 7.42224 29.8233C7.53135 29.845 7.63158 29.8986 7.71025 29.9773C7.78891 30.0559 7.84249 30.1561 7.86419 30.2653C7.8859 30.3744 7.87476 30.4875 7.83218 30.5903C7.78961 30.693 7.71751 30.7809 7.62501 30.8427C7.53251 30.9045 7.42375 30.9375 7.3125 30.9375C7.16337 30.9373 7.02039 30.878 6.91494 30.7726C6.80948 30.6671 6.75017 30.5241 6.75 30.375ZM2.28101 28.125C2.4194 26.8874 3.00908 25.7442 3.9373 24.914C4.86552 24.0838 6.06717 23.6248 7.3125 23.6248C8.55783 23.6248 9.75948 24.0838 10.6877 24.914C11.6159 25.7442 12.2056 26.8874 12.344 28.125H2.28101ZM28.6875 33.1875C28.2205 33.1877 27.7607 33.0715 27.3498 32.8495C26.9389 32.6274 26.5898 32.3065 26.3341 31.9157C26.0783 31.5249 25.9239 31.0766 25.8849 30.6112C25.8458 30.1458 25.9233 29.6779 26.1104 29.25H27.4311C27.2135 29.4927 27.0708 29.7932 27.0204 30.1152C26.9699 30.4372 27.0137 30.7669 27.1466 31.0645C27.2795 31.3621 27.4957 31.6149 27.7692 31.7923C28.0426 31.9696 28.3616 32.064 28.6875 32.064C29.0134 32.064 29.3324 31.9696 29.6058 31.7923C29.8793 31.6149 30.0955 31.3621 30.2284 31.0645C30.3613 30.7669 30.4051 30.4372 30.3546 30.1152C30.3042 29.7932 30.1615 29.4927 29.9439 29.25H31.2646C31.4517 29.6779 31.5292 30.1458 31.4901 30.6112C31.4511 31.0766 31.2967 31.5249 31.0409 31.9157C30.7852 32.3065 30.4361 32.6274 30.0252 32.8495C29.6143 33.0715 29.1545 33.1877 28.6875 33.1875ZM28.125 30.375C28.125 30.2637 28.158 30.155 28.2198 30.0625C28.2816 29.97 28.3695 29.8979 28.4722 29.8553C28.575 29.8127 28.6881 29.8016 28.7972 29.8233C28.9064 29.845 29.0066 29.8986 29.0852 29.9773C29.1639 30.0559 29.2175 30.1561 29.2392 30.2653C29.2609 30.3744 29.2498 30.4875 29.2072 30.5903C29.1646 30.693 29.0925 30.7809 29 30.8427C28.9075 30.9045 28.7988 30.9375 28.6875 30.9375C28.5384 30.9373 28.3954 30.878 28.2899 30.7726C28.1845 30.6671 28.1252 30.5241 28.125 30.375ZM23.656 28.125C23.7944 26.8874 24.3841 25.7442 25.3123 24.914C26.2405 24.0838 27.4422 23.6248 28.6875 23.6248C29.9328 23.6248 31.1345 24.0838 32.0627 24.914C32.9909 25.7442 33.5806 26.8874 33.719 28.125H23.656ZM28.6875 22.5C27.1444 22.5019 25.6576 23.0796 24.518 24.12C23.3784 25.1603 22.668 26.5885 22.5258 28.125H13.4742C13.3439 26.7198 12.738 25.4011 11.7567 24.3869C10.7754 23.3728 9.47736 22.7238 8.07722 22.5472L11.0929 13.5H12.3387L12.1447 16.6061C11.9155 20.1682 12.8132 23.7122 14.7105 26.7356C14.7611 26.8165 14.8314 26.8832 14.9148 26.9295C14.9983 26.9757 15.0921 27 15.1875 27H16.875C17.0242 27 17.1673 26.9407 17.2727 26.8352C17.3782 26.7298 17.4375 26.5867 17.4375 26.4375V24.1875C17.4364 23.2297 17.6397 22.2827 18.0338 21.4097C18.4279 20.5367 19.0036 19.7578 19.7227 19.125H22.9476C21.7823 19.8248 20.8178 20.8141 20.148 21.9969C19.4781 23.1797 19.1257 24.5157 19.125 25.875V27H20.25V25.875C20.2501 24.155 20.9068 22.4999 22.0861 21.2477C23.2653 19.9955 24.878 19.2408 26.595 19.1376C28.3119 19.0344 30.0035 19.5905 31.3242 20.6924C32.6449 21.7943 33.4952 23.3588 33.7013 25.0664C33.1286 24.2722 32.3753 23.6253 31.5036 23.1791C30.6319 22.733 29.6667 22.5002 28.6875 22.5ZM32.6776 19.125C32.8128 19.1251 32.9424 19.1789 33.038 19.2745C33.1336 19.3701 33.1874 19.4997 33.1875 19.6349V21.009C32.5951 20.2574 31.8717 19.6191 31.0522 19.125H32.6776ZM33.75 14.625H27V15.75H29.25C29.5484 15.75 29.8345 15.8685 30.0455 16.0795C30.2565 16.2905 30.375 16.5766 30.375 16.875C30.375 17.1734 30.2565 17.4595 30.0455 17.6705C29.8345 17.8815 29.5484 18 29.25 18H18.6446C18.4861 18 18.3291 17.9688 18.1827 17.9082C18.0362 17.8475 17.9031 17.7586 17.791 17.6465C17.6789 17.5344 17.59 17.4013 17.5294 17.2548C17.4687 17.1084 17.4375 16.9514 17.4375 16.7929V15.5373L17.5317 15.1378C17.6018 15.0245 17.707 14.9371 17.8312 14.889C17.9555 14.8409 18.0921 14.8346 18.2202 14.8712C20.2609 15.4542 22.3729 15.75 24.4953 15.75H25.875V14.625H24.4953C23.8283 14.625 23.1632 14.5942 22.5 14.5325V5.625H32.625V4.5H22.5V4.4512C22.5003 4.16587 22.6138 3.89232 22.8156 3.69056C23.0173 3.4888 23.2909 3.37532 23.5762 3.375H32.6738C32.9591 3.37532 33.2327 3.4888 33.4344 3.69056C33.6362 3.89232 33.7497 4.16587 33.75 4.4512V14.625Z" fill="black"/>
    <path d="M32.0625 6.75H24.1875C24.0383 6.75 23.8952 6.80926 23.7898 6.91475C23.6843 7.02024 23.625 7.16332 23.625 7.3125C23.6257 8.05737 23.8374 8.78679 24.2357 9.41628C24.6339 10.0458 25.2023 10.5496 25.875 10.8693V12.9375C25.875 13.0867 25.9343 13.2298 26.0398 13.3352C26.1452 13.4407 26.2883 13.5 26.4375 13.5H29.8125C29.9617 13.5 30.1048 13.4407 30.2102 13.3352C30.3157 13.2298 30.375 13.0867 30.375 12.9375V10.8693C31.0477 10.5496 31.6161 10.0458 32.0143 9.41628C32.4126 8.78679 32.6243 8.05737 32.625 7.3125C32.625 7.16332 32.5657 7.02024 32.4602 6.91475C32.3548 6.80926 32.2117 6.75 32.0625 6.75ZM29.25 12.375H27V11.2091C27.1863 11.2362 27.3743 11.2498 27.5625 11.25H28.6875C28.8757 11.2498 29.0637 11.2362 29.25 11.2091V12.375ZM28.6875 10.125H27.5625C26.9144 10.1242 26.2864 9.89997 25.7843 9.49011C25.2822 9.08026 24.9368 8.50984 24.8062 7.875H31.4438C31.3132 8.50984 30.9678 9.08026 30.4657 9.49011C29.9636 9.89997 29.3356 10.1242 28.6875 10.125Z" fill="#FFCC00"/>
    </svg>
    