<svg width="36" height="36" viewBox="0 0 36 36" fill="none" xmlns="http://www.w3.org/2000/svg">
    <g clip-path="url(#clip0_15_4)">
    <path d="M19.3135 19.6485C20.936 19.6485 22.2512 18.3658 22.2512 16.7835C22.2512 15.2013 20.936 13.9186 19.3135 13.9186C17.6911 13.9186 16.3759 15.2013 16.3759 16.7835C16.3759 18.3658 17.6911 19.6485 19.3135 19.6485Z" stroke="#FFCC00" stroke-linecap="round" stroke-linejoin="round"/>
    <path d="M11.0181 27.8613V34.3806C11.0181 34.6935 11.2782 34.9472 11.5991 34.9472H31.3547C31.6756 34.9472 31.9357 34.6935 31.9357 34.3806V20.7806C31.9353 20.3156 31.818 19.8577 31.5939 19.4473L27.2874 11.5722V1.5139C27.2874 1.20094 27.0272 0.947235 26.7063 0.947235H11.5991C11.2782 0.947235 11.0181 1.20094 11.0181 1.5139V3.50234L4.45299 5.50642C4.14672 5.59991 3.97616 5.91784 4.07205 6.21653L11.0181 27.8613ZM10.2776 8.47901L9.93037 7.39696L11.0181 7.0649V16.4771L8.78788 9.52763L9.89674 9.18905C10.2029 9.09553 10.3735 8.77766 10.2776 8.47901ZM30.7736 20.7806V33.8139H27.2874C24.4435 33.8107 22.1222 31.5941 22.0591 28.8212C22.0883 28.6738 22.0562 28.5211 21.97 28.3966L18.2013 22.9563C17.6525 22.1782 17.8592 21.113 18.6615 20.5842C19.4639 20.0555 20.5544 20.266 21.0899 21.0529C21.0933 21.0577 21.0971 21.0626 21.1004 21.0674L24.4926 25.6458C24.6018 25.7932 24.7768 25.8805 24.9632 25.8806H26.7063C27.0272 25.8806 27.2874 25.6269 27.2874 25.3139V13.9806L30.5686 19.9806C30.703 20.2269 30.7734 20.5016 30.7736 20.7806ZM15.6664 29.8472H14.5044V6.04723H15.6664C15.9874 6.04723 16.2475 5.79353 16.2475 5.48057V4.34723H22.058V5.48057C22.058 5.79353 22.3181 6.04723 22.639 6.04723H23.8011V22.7781L22.0471 20.4106C21.9785 20.313 21.8235 20.131 21.8235 20.131C21.8235 20.131 18.9998 17.8098 17.0764 20.6784C16.5763 21.6042 16.6384 22.7231 17.238 23.5909L20.8979 28.8736C20.9214 29.8047 21.16 30.7186 21.596 31.5472H16.2475V30.4139C16.2475 30.1009 15.9874 29.8472 15.6664 29.8472ZM12.1802 2.08057H26.1253V24.7472H25.2602L24.9632 24.3464V5.48057C24.9632 5.16761 24.703 4.9139 24.3821 4.9139H23.22V3.78057C23.22 3.46761 22.9599 3.2139 22.639 3.2139H15.6664C15.3455 3.2139 15.0854 3.46761 15.0854 3.78057V4.9139H13.9233C13.6024 4.9139 13.3423 5.16761 13.3423 5.48057V30.4139C13.3423 30.7269 13.6024 30.9806 13.9233 30.9806H15.0854V32.1139C15.0854 32.4269 15.3455 32.6806 15.6664 32.6806H22.3622C22.7276 33.1112 23.1503 33.4923 23.6191 33.8139H12.1802V2.08057ZM11.0181 4.68986V5.87723L9.02873 6.48456C8.72249 6.57805 8.55194 6.89593 8.64778 7.19459L8.99503 8.27671L7.88617 8.61523C7.57993 8.70874 7.40941 9.02667 7.5053 9.32533L11.0181 20.2714V24.0668L5.35463 6.41876L11.0181 4.68986Z" fill="black"/>
    </g>
    <defs>
    <clipPath id="clip0_15_4">
    <rect width="28" height="34" fill="white" transform="translate(4 1)"/>
    </clipPath>
    </defs>
    </svg>
    