<svg width="36" height="36" viewBox="0 0 36 36" fill="none" xmlns="http://www.w3.org/2000/svg">
    <g clip-path="url(#clip0_15_0)">
    <path d="M33.014 4.94599L28.3842 1.43465C28.1158 1.23012 27.7612 1.19615 27.4587 1.34592C27.1558 1.4959 26.9677 1.79887 26.9677 2.13672V3.37211H23.4163C22.4297 1.37629 20.373 -7.24792e-05 18 -7.24792e-05C15.627 -7.24792e-05 13.5703 1.37629 12.5837 3.37211H9.03236V2.13672C9.03236 1.79887 8.8442 1.4959 8.5413 1.34592C8.23881 1.19608 7.88409 1.23019 7.6169 1.43388L2.98576 4.9462C2.76421 5.11453 2.63708 5.37061 2.63708 5.64883C2.63708 5.92706 2.76421 6.18321 2.98605 6.35161L7.61662 9.86428C8.19515 10.3036 9.03236 9.89247 9.03236 9.16158V7.92619H12.265C12.331 8.12629 12.4073 8.32162 12.4931 8.51196L4.36136 15.2438C3.95221 15.5824 3.80406 16.1241 3.98406 16.6238C4.16406 17.1236 4.62348 17.4466 5.15455 17.4466H5.95337V19.3422C5.95337 19.9369 6.43719 20.4206 7.0319 20.4206H7.2685V29.0718H7.0319C6.43719 29.0718 5.95337 29.5556 5.95337 30.1503V32.046H4.90874C4.35749 32.046 3.90897 32.4944 3.90897 33.0457V35.0001C3.90897 35.5513 4.35749 35.9999 4.90874 35.9999H10.298C10.5893 35.9999 10.8253 35.7637 10.8253 35.4725C10.8253 35.1813 10.5893 34.9452 10.298 34.9452H4.96373V33.1007H31.0364V34.9452H12.759C12.4677 34.9452 12.2316 35.1814 12.2316 35.4726C12.2316 35.7638 12.4677 35.9999 12.759 35.9999H31.0913C31.6425 35.9999 32.0911 35.5515 32.0911 35.0002V33.0458C32.0911 32.4946 31.6425 32.046 31.0913 32.046H30.0467V30.1503C30.0467 29.5556 29.5628 29.0718 28.9681 29.0718H28.7315V24.3785C28.7315 24.0872 28.4955 23.8511 28.2042 23.8511C27.9129 23.8511 27.6768 24.0872 27.6768 24.3785V29.0718H24.9989V20.4207H27.6768V21.9175C27.6768 22.2088 27.9129 22.4449 28.2042 22.4449C28.4955 22.4449 28.7315 22.2088 28.7315 21.9175V20.4207H28.9681C29.5628 20.4207 30.0467 19.9369 30.0467 19.3423V17.4466H30.8455C31.3766 17.4466 31.836 17.1237 32.016 16.6239C32.196 16.1242 32.0478 15.5824 31.6387 15.244L23.5069 8.51203C23.5927 8.32169 23.669 8.12636 23.7351 7.92626H26.9677V9.16165C26.9677 9.89023 27.8031 10.3051 28.3832 9.86442L33.0143 6.35147C33.2358 6.18314 33.3629 5.92706 33.3629 5.64883C33.3629 5.37061 33.2359 5.11446 33.014 4.94599ZM12.0201 6.87157H8.84603C8.3672 6.87157 7.97767 7.2611 7.97767 7.73993V8.81437L3.80462 5.64883L7.97767 2.48393V3.55774C7.97767 4.03692 8.3672 4.4268 8.84603 4.4268H12.1814C11.9645 5.20861 11.9027 6.02515 12.0201 6.87157ZM18 1.05462C20.7483 1.05462 22.9841 3.29048 22.9841 6.03872C22.9841 8.78695 20.7483 11.0228 18 11.0228C15.2518 11.0228 13.0159 8.78695 13.0159 6.03872C13.0159 3.29048 15.2518 1.05462 18 1.05462ZM28.9681 30.1265C28.9812 30.1265 28.9919 30.1372 28.9919 30.1503V32.046H7.00813V30.1503C7.00813 30.1372 7.01882 30.1265 7.03197 30.1265H28.9681ZM8.32326 29.0718V20.4207H11.0012V29.0718H8.32326ZM12.0559 29.0718V20.4207H15.6064V29.0718H12.0559ZM16.6611 29.0718V20.4207H19.339V29.0718H16.6611ZM20.3937 29.0718V20.4207H23.9442V29.0718H20.3937ZM28.9919 19.3422C28.9919 19.3553 28.9812 19.366 28.9681 19.366H7.03197C7.01882 19.366 7.00813 19.3553 7.00813 19.3422V17.4466H28.9919V19.3422ZM30.9663 16.0563C31.1037 16.17 31.0245 16.3918 30.8454 16.3918H5.15462C5.03889 16.3918 4.99326 16.3133 4.97638 16.2664C4.95958 16.2196 4.9446 16.1302 5.03383 16.0563L13.0181 9.44655C14.1073 11.0339 15.9338 12.0774 18 12.0774C20.0662 12.0774 21.8927 11.0338 22.9819 9.44655L30.9663 16.0563ZM28.0224 8.81437V7.73993C28.0224 7.2611 27.6328 6.87157 27.154 6.87157H23.98C24.0973 6.02515 24.0354 5.20868 23.8186 4.4268H27.154C27.6328 4.4268 28.0224 4.03699 28.0224 3.55774V2.48393L32.1954 5.64883L28.0224 8.81437Z" fill="black"/>
    <path d="M17.4726 8.85081V9.25679C17.4726 9.54803 17.7087 9.78414 18 9.78414C18.2913 9.78414 18.5273 9.54803 18.5273 9.25679V8.88449C19.3003 8.73719 19.9075 8.18734 20.0359 7.46783C20.1489 6.83495 19.8586 6.00688 18.7044 5.58114C18.115 5.3638 17.5671 5.12685 17.4094 5.05766C17.2971 4.97047 17.2431 4.83463 17.2642 4.68775C17.2779 4.59261 17.3461 4.36051 17.6832 4.25891C18.3818 4.04833 19.0227 4.55739 19.0391 4.57054C19.2619 4.7556 19.5928 4.72628 19.7796 4.50416C19.967 4.2812 19.9381 3.94855 19.7153 3.76117C19.6861 3.73677 19.2132 3.34717 18.5273 3.20458V2.82074C18.5273 2.52951 18.2913 2.2934 18 2.2934C17.7087 2.2934 17.4726 2.52951 17.4726 2.82074V3.22356C16.7511 3.40813 16.3064 3.93723 16.2202 4.53791C16.1389 5.10484 16.3845 5.65018 16.8614 5.96111C16.8847 5.97629 16.9091 5.98958 16.9345 6.0009C16.9617 6.01307 17.6097 6.30142 18.3393 6.57065C18.5609 6.65235 19.0686 6.88537 18.9976 7.28242C18.9461 7.57133 18.6007 7.87023 18.1121 7.87023C17.6259 7.87023 17.1574 7.67357 16.8589 7.34415C16.6634 7.12836 16.3299 7.11191 16.1141 7.30752C15.8982 7.50313 15.8818 7.83655 16.0774 8.05241C16.435 8.44694 16.9312 8.72586 17.4726 8.85081Z" fill="#FFCC00"/>
    </g>
    <defs>
    <clipPath id="clip0_15_0">
    <rect width="36" height="36" fill="white"/>
    </clipPath>
    </defs>
    </svg>
    