<svg width="18" height="22" viewBox="0 0 18 22" fill="none" xmlns="http://www.w3.org/2000/svg">
    <path fill-rule="evenodd" clip-rule="evenodd" d="M9 1.83335C7.09044 1.83335 5.25909 2.60597 3.90883 3.98125C2.55857 5.35652 1.8 7.2218 1.8 9.16674C1.8 12.0066 3.61416 14.7623 5.60336 16.9009C6.57955 17.9505 7.5588 18.8097 8.29501 19.4068C8.569 19.629 8.80832 19.8141 9 19.9584C9.19168 19.8141 9.431 19.629 9.70499 19.4068C10.4412 18.8097 11.4204 17.9505 12.3966 16.9009C14.3858 14.7623 16.2 12.0066 16.2 9.16674C16.2 7.2218 15.4414 5.35652 14.0912 3.98125C12.7409 2.60597 10.9096 1.83335 9 1.83335ZM9 21.0835C8.50077 21.8462 8.50054 21.8461 8.50028 21.8459L8.49771 21.8441L8.49171 21.84L8.47109 21.8258C8.45356 21.8137 8.42857 21.7963 8.3966 21.7737C8.33268 21.7286 8.24082 21.6629 8.12501 21.5778C7.89349 21.4075 7.56572 21.1589 7.17374 20.8409C6.3912 20.2063 5.34545 19.2894 4.29664 18.1618C2.23584 15.9462 0 12.7435 0 9.16674C5.36442e-08 6.73557 0.948211 4.40397 2.63604 2.68487C4.32387 0.965778 6.61305 0 9 0C11.3869 0 13.6761 0.965778 15.364 2.68487C17.0518 4.40397 18 6.73557 18 9.16674C18 12.7435 15.7642 15.9462 13.7034 18.1618C12.6546 19.2894 11.6088 20.2063 10.8263 20.8409C10.4343 21.1589 10.1065 21.4075 9.87499 21.5778C9.75918 21.6629 9.66732 21.7286 9.6034 21.7737C9.57143 21.7963 9.54644 21.8137 9.52891 21.8258L9.50829 21.84L9.50229 21.8441L9.50039 21.8454C9.50013 21.8456 9.49923 21.8462 9 21.0835ZM9 21.0835L9.49923 21.8462C9.19692 22.0515 8.80259 22.0512 8.50028 21.8459L9 21.0835Z" fill="black"/>
    <path fill-rule="evenodd" clip-rule="evenodd" d="M9.00039 7.33341C8.00628 7.33341 7.20039 8.15423 7.20039 9.16676C7.20039 10.1793 8.00628 11.0001 9.00039 11.0001C9.9945 11.0001 10.8004 10.1793 10.8004 9.16676C10.8004 8.15423 9.9945 7.33341 9.00039 7.33341ZM5.40039 9.16676C5.40039 7.1417 7.01217 5.50006 9.00039 5.50006C10.9886 5.50006 12.6004 7.1417 12.6004 9.16676C12.6004 11.1918 10.9886 12.8334 9.00039 12.8334C7.01217 12.8334 5.40039 11.1918 5.40039 9.16676Z" fill="black"/>
    </svg>
    