<svg width="26" height="21" viewBox="0 0 26 21" fill="none" xmlns="http://www.w3.org/2000/svg"><path d="M0 18.5841C0 19.3882 0.651828 20.04 1.4559 20.04H24.5441C25.3482 20.04 26 19.3882 26 18.5841V18.5841C26 17.78 25.3482 17.1282 24.5441 17.1282H1.4559C0.651827 17.1282 0 17.78 0 18.5841V18.5841ZM0 9.93436C0 10.6911 0.613484 11.3046 1.37026 11.3046H24.6297C25.3865 11.3046 26 10.6911 26 9.93436V9.93436C26 9.17759 25.3865 8.5641 24.6297 8.5641H1.37026C0.613485 8.5641 0 9.17759 0 9.93436V9.93436ZM1.28461 0C0.575141 0 0 0.575142 0 1.28462V1.28462C0 1.99409 0.575142 2.56923 1.28461 2.56923H24.7154C25.4249 2.56923 26 1.99409 26 1.28462V1.28462C26 0.575142 25.4249 0 24.7154 0H1.28461Z" fill="black"/></svg>
    
    